<svg width="60" height="66" viewBox="0 0 60 66" fill="none" xmlns="http://www.w3.org/2000/svg">
<path d="M17.4949 40.0872L17.3048 43.2461C17.3681 43.2499 17.4315 43.252 17.4949 43.252V40.0872ZM14.1402 46.8134L11.7311 48.8659C11.7484 48.8861 11.766 48.9064 11.7838 48.9262L14.1402 46.8134ZM26.6474 60.7638L24.2911 62.8766L24.2957 62.8816L26.6474 60.7638ZM30.002 62.2407L30.0282 59.0755L29.9759 59.0759L30.002 62.2407ZM33.3567 60.7638L35.7088 62.8816L35.7134 62.8761L33.3567 60.7638ZM45.8597 46.8134L48.2164 48.9258C48.2341 48.906 48.2518 48.8861 48.2687 48.8659L45.8597 46.8134ZM42.505 40.0872V43.252C42.5683 43.252 42.632 43.2499 42.6953 43.2461L42.505 40.0872ZM26.8373 40.0872C26.8373 41.835 28.2542 43.252 30.002 43.252C31.7498 43.252 33.1668 41.835 33.1668 40.0872H26.8373ZM33.1668 3.16478C33.1668 1.41693 31.7498 0 30.002 0C28.2542 0 26.8373 1.41693 26.8373 3.16478H33.1668ZM30.002 36.9224H17.4949V43.252H30.002V36.9224ZM17.685 36.9283C14.7841 36.7536 12.0593 38.3284 10.7622 40.929L16.4264 43.7541C16.5909 43.4241 16.9367 43.2241 17.3048 43.2461L17.685 36.9283ZM10.7622 40.929C9.46512 43.5296 9.8465 46.6535 11.7311 48.8659L16.5493 44.7609C16.3102 44.4803 16.2618 44.0841 16.4264 43.7541L10.7622 40.929ZM11.7838 48.9262L24.2911 62.8766L29.0037 58.6509L16.4966 44.7006L11.7838 48.9262ZM24.2957 62.8816C25.757 64.5045 27.8441 65.4236 30.0282 65.4054L29.9759 59.0759C29.6037 59.0792 29.2484 58.9227 28.9994 58.6459L24.2957 62.8816ZM29.9759 65.4054C32.16 65.4236 34.2471 64.5045 35.7088 62.8816L31.0051 58.6459C30.7561 58.9227 30.4004 59.0788 30.0282 59.0755L29.9759 65.4054ZM35.7134 62.8761L48.2164 48.9258L43.503 44.701L31 58.6514L35.7134 62.8761ZM48.2687 48.8659C50.1537 46.6535 50.5347 43.5296 49.238 40.929L43.5735 43.7541C43.738 44.0841 43.6899 44.4803 43.4507 44.7609L48.2687 48.8659ZM49.238 40.929C47.9409 38.3284 45.2158 36.7536 42.3151 36.9283L42.6953 43.2461C43.0633 43.2241 43.4089 43.4241 43.5735 43.7541L49.238 40.929ZM42.505 36.9224H30.002V43.252H42.505V36.9224ZM33.1668 40.0872V3.16478H26.8373V40.0872H33.1668Z" fill="#5998C5"/>
</svg>
