<svg width="56" height="50" viewBox="0 0 56 50" fill="none" xmlns="http://www.w3.org/2000/svg">
<path fill-rule="evenodd" clip-rule="evenodd" d="M0 0H3.5V46.875H56V50H0V0ZM51.8595 9.72812C52.0375 9.85815 52.185 10.0182 52.2937 10.1992C52.4023 10.3802 52.4699 10.5785 52.4927 10.7828C52.5154 10.9871 52.4929 11.1934 52.4263 11.3899C52.3596 11.5865 52.2503 11.7694 52.1045 11.9281L36.3545 29.1156C36.1997 29.2843 36.007 29.4222 35.789 29.5205C35.5709 29.6187 35.3322 29.6751 35.0882 29.6859C34.8442 29.6968 34.6004 29.662 34.3724 29.5837C34.1445 29.5054 33.9374 29.3853 33.7645 29.2313L24.71 21.1469L11.914 36.8563C11.6341 37.1741 11.2271 37.3826 10.7785 37.4381C10.33 37.4936 9.87484 37.3916 9.5087 37.1537C9.14256 36.9158 8.89396 36.5605 8.81514 36.1624C8.73631 35.7642 8.8334 35.3543 9.086 35.0187L23.086 17.8312C23.2346 17.6485 23.4258 17.4966 23.6465 17.3862C23.8671 17.2758 24.1119 17.2094 24.3641 17.1915C24.6163 17.1737 24.8698 17.2049 25.1071 17.283C25.3445 17.361 25.56 17.4841 25.739 17.6437L34.8705 25.8L49.3955 9.94688C49.5411 9.78797 49.7204 9.65625 49.9231 9.55924C50.1258 9.46223 50.3479 9.40185 50.5767 9.38153C50.8056 9.36122 51.0366 9.38137 51.2567 9.44084C51.4769 9.50031 51.6817 9.59793 51.8595 9.72812Z" fill="#5998C5"/>
</svg>
