<svg width="50" height="56" viewBox="0 0 50 56" fill="none" xmlns="http://www.w3.org/2000/svg">
<path d="M25.736 0.252732C25.5099 0.0867904 25.2577 0 25.0016 0C24.7454 0 24.4932 0.0867904 24.2672 0.252732L0.829311 17.4844C0.579705 17.6682 0.371006 17.9421 0.225495 18.2767C0.0799837 18.6113 0.00312505 18.9941 0.00312505 19.3842C0.00312505 19.7743 0.0799837 20.1571 0.225495 20.4917C0.371006 20.8263 0.579705 21.1001 0.829311 21.284L9.96383 28L0.826186 34.716C0.57658 34.8999 0.367881 35.1737 0.22237 35.5083C0.0768586 35.8429 0 36.2257 0 36.6158C0 37.0059 0.0768586 37.3887 0.22237 37.7233C0.367881 38.0579 0.57658 38.3318 0.826186 38.5156L24.2641 55.7473C24.4901 55.9132 24.7423 56 24.9984 56C25.2546 56 25.5068 55.9132 25.7328 55.7473L49.1707 38.5156C49.4203 38.3318 49.629 38.0579 49.7745 37.7233C49.92 37.3887 49.9969 37.0059 49.9969 36.6158C49.9969 36.2257 49.92 35.8429 49.7745 35.5083C49.629 35.1737 49.4203 34.8999 49.1707 34.716L40.0424 28L49.1738 21.284C49.4234 21.1001 49.6321 20.8263 49.7776 20.4917C49.9231 20.1571 50 19.7743 50 19.3842C50 18.9941 49.9231 18.6113 49.7776 18.2767C49.6321 17.9421 49.4234 17.6682 49.1738 17.4844L25.736 0.252732ZM36.7205 30.4426L45.1206 36.6158L25.0016 51.4049L4.8825 36.6158L13.2826 30.4426L24.2672 38.5156C24.4932 38.6816 24.7454 38.7683 25.0016 38.7683C25.2577 38.7683 25.5099 38.6816 25.736 38.5156L36.7205 30.4426ZM25.0016 34.1732L4.8825 19.3842L25.0016 4.59511L45.1206 19.3842L25.0016 34.1732Z" fill="#5998C5"/>
</svg>
