<svg width="54" height="53" viewBox="0 0 54 53" fill="none" xmlns="http://www.w3.org/2000/svg">
<path fill-rule="evenodd" clip-rule="evenodd" d="M53.3824 0.373727C53.5756 0.529201 53.7312 0.724848 53.838 0.94654C53.9449 1.16823 54.0002 1.41044 54 1.65566V48.0307C53.9998 48.4134 53.8645 48.7843 53.6171 49.0802C53.3698 49.3761 53.0257 49.5788 52.6432 49.6538L35.7682 52.9663C35.5499 53.0091 35.3251 53.0091 35.1068 52.9663L18.5625 49.72L2.01825 52.9663C1.77352 53.0143 1.521 53.0084 1.27886 52.9491C1.03672 52.8898 0.810999 52.7785 0.61796 52.6233C0.424922 52.468 0.26937 52.2727 0.162512 52.0513C0.0556544 51.83 0.000150703 51.5881 0 51.3432L0 4.96816C0.000235514 4.58542 0.135527 4.21456 0.382871 3.91866C0.630216 3.62275 0.974346 3.42006 1.35675 3.34504L18.2318 0.032539C18.4501 -0.010294 18.6749 -0.010294 18.8932 0.032539L35.4375 3.27879L51.9818 0.032539C52.2264 -0.0157711 52.4789 -0.0102276 52.7211 0.0487703C52.9633 0.107768 53.1891 0.218752 53.3824 0.373727ZM33.75 6.32629L20.25 3.67629V46.6725L33.75 49.3225V6.32629ZM37.125 49.3225L50.625 46.6725V3.67629L37.125 6.32629V49.3225ZM16.875 46.6725V3.67629L3.375 6.32629V49.3225L16.875 46.6725Z" fill="#5998C5"/>
</svg>
